<?xml version="1.0" encoding="UTF-8" standalone="no"?>
<svg
   xmlns:dc="http://purl.org/dc/elements/1.1/"
   xmlns:cc="http://creativecommons.org/ns#"
   xmlns:rdf="http://www.w3.org/1999/02/22-rdf-syntax-ns#"
   xmlns:svg="http://www.w3.org/2000/svg"
   xmlns="http://www.w3.org/2000/svg"
   xmlns:sodipodi="http://sodipodi.sourceforge.net/DTD/sodipodi-0.dtd"
   xmlns:inkscape="http://www.inkscape.org/namespaces/inkscape"
   height="58.041897"
   width="56.818295"
   id="svg3004"
   version="1.1"
   inkscape:version="0.48.1 r9760"
   sodipodi:docname="confused_andy.svg">
  <metadata
     id="metadata3018">
    <rdf:RDF>
      <cc:Work
         rdf:about="">
        <dc:format>image/svg+xml</dc:format>
        <dc:type
           rdf:resource="http://purl.org/dc/dcmitype/StillImage" />
      </cc:Work>
    </rdf:RDF>
  </metadata>
  <defs
     id="defs3016" />
  <sodipodi:namedview
     pagecolor="#ffffff"
     bordercolor="#666666"
     borderopacity="1"
     objecttolerance="10"
     gridtolerance="10"
     guidetolerance="10"
     inkscape:pageopacity="0"
     inkscape:pageshadow="2"
     inkscape:window-width="1278"
     inkscape:window-height="798"
     id="namedview3014"
     showgrid="false"
     fit-margin-top="0"
     fit-margin-left="0"
     fit-margin-right="0"
     fit-margin-bottom="0"
     inkscape:zoom="4.1622876"
     inkscape:cx="37.79528"
     inkscape:cy="25.319435"
     inkscape:window-x="0"
     inkscape:window-y="0"
     inkscape:window-maximized="0"
     inkscape:current-layer="svg3004" />
  <path
     d="m 8.344,32.104197 4.062,7.0627 C 5.012,42.793797 0,49.894897 0,58.041897 h 23.656 23.656 c 0,-8.1468 -5.012,-15.248 -12.406,-18.875 l 4.063,-7.0626 c 0,0 0.19231,-0.37509 -0.17225,-0.58569 -0.365,-0.21059 -0.61,0.14869 -0.61,0.14869 l -4.125,7.1248 c -3.141,-1.3979 -6.6721,-2.1875 -10.406,-2.1875 -3.7341,0 -7.2653,0.7896 -10.406,2.1875 l -4.125,-7.1248 c 0,0 -0.23006,-0.35939 -0.59737,-0.14971 -0.368,0.20967 -0.184,0.58671 -0.184,0.58671 z m 4.062,13.68 c 1.2395,0 2.25,1.0105 2.25,2.25 -1e-5,1.2395 -1.0105,2.2188 -2.25,2.2188 -1.2395,0 -2.25,-0.97928 -2.25,-2.2188 0,-1.23952 1.0105,-2.25 2.25,-2.25 z m 22.5,0 c 1.2395,0 2.25,1.0105 2.25,2.25 -10e-6,1.2395 -1.0105,2.2188 -2.25,2.2188 -1.2395,0 -2.25,-0.97928 -2.25,-2.2188 0,-1.23952 1.0105,-2.25 2.25,-2.25 z"
     id="path3006"
     inkscape:connector-curvature="0"
     style="fill:#a3a3a3;fill-opacity:1" />
  <path
     sodipodi:type="arc"
     style="fill:#a3a3a3;fill-opacity:1;stroke:none"
     id="path3020"
     sodipodi:cx="48.332047"
     sodipodi:cy="28.115829"
     sodipodi:rx="4.1621623"
     sodipodi:ry="4.1621623"
     d="m 52.494209,28.115829 a 4.1621623,4.1621623 0 1 1 -8.324325,0 4.1621623,4.1621623 0 1 1 8.324325,0 z"
     transform="matrix(0.93877551,0,0,0.93877551,-10.192469,-0.84138957)" />
  <path
     style="fill:#a3a3a3;fill-opacity:1;stroke:none"
     d="M 53.719239,2.8861416 C 49.844257,-0.87624597 43.751544,-0.94992957 39.792421,2.6052701 l 3.789051,3.6789529 c 1.906557,-1.7120441 4.854003,-1.6898924 6.720041,0.1219245 1.866038,1.8118174 1.975067,4.7573285 0.31997,6.7135265 l 3.789051,3.678953 C 57.847479,12.736422 57.594221,6.6485293 53.719239,2.8861416 z"
     id="path3792"
     inkscape:connector-curvature="0"
     sodipodi:nodetypes="sccsccs" />
  <path
     style="fill:#a3a3a3;fill-opacity:1;stroke:#a3a3a3;stroke-width:1px;stroke-linecap:butt;stroke-linejoin:miter;stroke-opacity:1"
     d="m 51.02499,13.34816 c -3.078548,3.383139 -9.376497,0.930628 -13.319595,4.861941 l 4.020611,3.915235 c 4.043293,-3.910648 9.61882,-2.838188 12.052909,-5.407604 z"
     id="path3821"
     inkscape:connector-curvature="0"
     sodipodi:nodetypes="ccccc" />
</svg>
