<?xml version="1.0" encoding="UTF-8" standalone="no"?>
<!-- Created with Inkscape (http://www.inkscape.org/) -->

<svg
   xmlns:dc="http://purl.org/dc/elements/1.1/"
   xmlns:cc="http://creativecommons.org/ns#"
   xmlns:rdf="http://www.w3.org/1999/02/22-rdf-syntax-ns#"
   xmlns:svg="http://www.w3.org/2000/svg"
   xmlns="http://www.w3.org/2000/svg"
   xmlns:sodipodi="http://sodipodi.sourceforge.net/DTD/sodipodi-0.dtd"
   xmlns:inkscape="http://www.inkscape.org/namespaces/inkscape"
   width="469"
   height="469"
   id="svg2"
   version="1.1"
   inkscape:version="0.48.2 r9819"
   sodipodi:docname="New document 1">
  <defs
     id="defs4" />
  <sodipodi:namedview
     id="base"
     pagecolor="#ffffff"
     bordercolor="#666666"
     borderopacity="1.0"
     inkscape:pageopacity="0.0"
     inkscape:pageshadow="2"
     inkscape:zoom="0.70710678"
     inkscape:cx="275.79427"
     inkscape:cy="235.37961"
     inkscape:document-units="px"
     inkscape:current-layer="layer1"
     showgrid="false"
     fit-margin-top="0"
     fit-margin-left="0"
     fit-margin-right="0"
     fit-margin-bottom="0"
     inkscape:snap-bbox="true"
     inkscape:bbox-nodes="true"
     inkscape:object-nodes="false"
     showguides="true"
     inkscape:guide-bbox="true"
     inkscape:snap-bbox-edge-midpoints="true"
     inkscape:window-width="1278"
     inkscape:window-height="798"
     inkscape:window-x="0"
     inkscape:window-y="0"
     inkscape:window-maximized="0" />
  <metadata
     id="metadata7">
    <rdf:RDF>
      <cc:Work
         rdf:about="">
        <dc:format>image/svg+xml</dc:format>
        <dc:type
           rdf:resource="http://purl.org/dc/dcmitype/StillImage" />
        <dc:title></dc:title>
      </cc:Work>
    </rdf:RDF>
  </metadata>
  <g
     inkscape:label="Layer 1"
     inkscape:groupmode="layer"
     id="layer1"
     transform="translate(194,147.57071)">
    <g
       id="g3913">
      <path
         id="path2985"
         d="m -124,38.655363 c -38.65993,0 -70,31.34007 -70,69.999997 0,38.65993 31.34007,70 70,70 38.65993,0 70,-31.34007 70,-70 0,-38.659927 -31.34007,-69.999997 -70,-69.999997 z m 0,41 c 16.01626,0 29,12.98374 29,28.999997 0,16.01626 -12.98374,29 -29,29 -16.01626,0 -29,-12.98374 -29,-29 0,-16.016257 12.98374,-28.999997 29,-28.999997 z"
         style="color:#000000;fill:#a3a3a3;fill-opacity:1;fill-rule:nonzero;stroke:none;stroke-width:0;marker:none;visibility:visible;display:inline;overflow:visible;enable-background:accumulate"
         inkscape:connector-curvature="0" />
      <path
         inkscape:connector-curvature="0"
         style="color:#000000;fill:#a3a3a3;fill-opacity:1;fill-rule:nonzero;stroke:none;stroke-width:0;marker:none;visibility:visible;display:inline;overflow:visible;enable-background:accumulate"
         d="m 40.5,38.655363 c -38.65993,0 -70,31.34007 -70,69.999997 0,38.65993 31.34007,70 70,70 38.65993,0 70,-31.34007 70,-70 0,-38.659927 -31.34007,-69.999997 -70,-69.999997 z m 0,41 c 16.01626,0 29,12.98374 29,28.999997 0,16.01626 -12.98374,29 -29,29 -16.01626,0 -29,-12.98374 -29,-29 0,-16.016257 12.98374,-28.999997 29,-28.999997 z"
         id="path2990" />
      <path
         id="path2992"
         d="m 205,38.655363 c -38.65993,0 -70,31.34007 -70,69.999997 0,38.65993 31.34007,70 70,70 38.65993,0 70,-31.34007 70,-70 0,-38.659927 -31.34007,-69.999997 -70,-69.999997 z m 0,41 c 16.01626,0 29,12.98374 29,28.999997 0,16.01626 -12.98374,29 -29,29 -16.01626,0 -29,-12.98374 -29,-29 0,-16.016257 12.98374,-28.999997 29,-28.999997 z"
         style="color:#000000;fill:#a3a3a3;fill-opacity:1;fill-rule:nonzero;stroke:none;stroke-width:0;marker:none;visibility:visible;display:inline;overflow:visible;enable-background:accumulate"
         inkscape:connector-curvature="0" />
      <text
         sodipodi:linespacing="125%"
         id="text2994"
         y="13.887021"
         x="-173.07227"
         style="font-size:150px;font-style:normal;font-variant:normal;font-weight:normal;font-stretch:normal;text-align:start;line-height:125%;letter-spacing:0px;word-spacing:0px;text-anchor:start;fill:#a3a3a3;fill-opacity:1;stroke:none;font-family:Monospace;-inkscape-font-specification:Monospace"
         xml:space="preserve"><tspan
           y="13.887021"
           x="-173.07227"
           id="tspan2996"
           sodipodi:role="line">1</tspan></text>
      <text
         sodipodi:linespacing="125%"
         id="text2998"
         y="14.730771"
         x="-3.8481445"
         style="font-size:150px;font-style:normal;font-variant:normal;font-weight:normal;font-stretch:normal;text-align:start;line-height:125%;letter-spacing:0px;word-spacing:0px;text-anchor:start;fill:#a3a3a3;fill-opacity:1;stroke:none;font-family:Monospace;-inkscape-font-specification:Monospace"
         xml:space="preserve"><tspan
           y="14.730771"
           x="-3.8481445"
           id="tspan3000"
           sodipodi:role="line">2</tspan></text>
      <text
         sodipodi:linespacing="125%"
         id="text3002"
         y="13.824521"
         x="160.46875"
         style="font-size:150px;font-style:normal;font-variant:normal;font-weight:normal;font-stretch:normal;text-align:start;line-height:125%;letter-spacing:0px;word-spacing:0px;text-anchor:start;fill:#a3a3a3;fill-opacity:1;stroke:none;font-family:Monospace;-inkscape-font-specification:Monospace"
         xml:space="preserve"><tspan
           y="13.824521"
           x="160.46875"
           id="tspan3004"
           sodipodi:role="line">3</tspan></text>
      <path
         id="path2985-0"
         transform="translate(-194,-156.63782)"
         d="M 70,358 C 31.34007,358 0,389.34007 0,428 l 41,0 c 0,-16.01626 12.98374,-29 29,-29 16.01626,0 29,12.98374 29,29 l 41,0 c 0,-38.65993 -31.34007,-70 -70,-70 z"
         style="color:#000000;fill:#a3a3a3;fill-opacity:1;fill-rule:nonzero;stroke:none;stroke-width:0;marker:none;visibility:visible;display:inline;overflow:visible;enable-background:accumulate"
         inkscape:connector-curvature="0" />
      <path
         id="path2990-2"
         transform="translate(-194,-156.63782)"
         d="m 234.5,358 c -38.65993,0 -70,31.34007 -70,70 l 41,0 c 0,-16.01626 12.98374,-29 29,-29 16.01626,0 29,12.98374 29,29 l 41,0 c 0,-38.65993 -31.34007,-70 -70,-70 z"
         style="color:#000000;fill:#a3a3a3;fill-opacity:1;fill-rule:nonzero;stroke:none;stroke-width:0;marker:none;visibility:visible;display:inline;overflow:visible;enable-background:accumulate"
         inkscape:connector-curvature="0" />
      <path
         id="path2992-3"
         transform="translate(-194,-156.63782)"
         d="m 399,358 c -38.65993,0 -70,31.34007 -70,70 l 41,0 c 0,-16.01626 12.98374,-29 29,-29 16.01626,0 29,12.98374 29,29 l 41,0 c 0,-38.65993 -31.34007,-70 -70,-70 z"
         style="color:#000000;fill:#a3a3a3;fill-opacity:1;fill-rule:nonzero;stroke:none;stroke-width:0;marker:none;visibility:visible;display:inline;overflow:visible;enable-background:accumulate"
         inkscape:connector-curvature="0" />
    </g>
  </g>
</svg>
